<?xml version="1.0" encoding="utf-8"?>
<!-- Generator: Adobe Illustrator 27.3.1, SVG Export Plug-In . SVG Version: 6.00 Build 0)  -->
<svg version="1.1" id="Слой_1" xmlns="http://www.w3.org/2000/svg" xmlns:xlink="http://www.w3.org/1999/xlink" x="0px" y="0px"
	 viewBox="0 0 1200 1200" style="enable-background:new 0 0 1200 1200;" xml:space="preserve">
<style type="text/css">
	.st0{fill:#505050;}
	.st1{fill:#130E01;}
	.st2{fill:none;}
	.st3{fill:#FF8400;}
	.st4{fill:#FFA54A;}
	.st5{fill:#ED8200;}
	.st6{fill:#FFF4F4;}
</style>
<polygon class="st0" points="624.53,121.28 624.53,258.52 250.25,258.52 250.25,1056.99 187.87,1119.37 187.87,121.28 "/>
<path class="st1" d="M724.34,9v1110.37h-99.81V338.23c0-44.02-35.69-79.71-79.71-79.71H267.57c-44.02,0-79.71,35.69-79.71,79.71
	v781.14H88.06V9H724.34z"/>
<g>
	<line class="st2" x1="90.48" y1="284.16" x2="718.45" y2="284.16"/>
	<line class="st2" x1="613.79" y1="99.79" x2="613.79" y2="1206"/>
	<line class="st2" x1="509.12" y1="99.79" x2="509.12" y2="1206"/>
	<line class="st2" x1="404.46" y1="99.79" x2="404.46" y2="1206"/>
</g>
<polygon class="st0" points="786.72,9 786.72,1056.99 724.34,1119.37 724.34,9 "/>
<polygon class="st3" points="961.38,620.33 961.38,1194.23 886.53,1120.49 886.53,620.33 "/>
<polygon class="st4" points="1161,483.09 1161,545.47 624.53,545.47 686.91,483.09 "/>
<polygon class="st5" points="886.53,620.33 886.53,1120.49 822.07,1056.99 824.15,620.33 "/>
<polygon class="st3" points="1161,545.47 1161,620.33 549.67,620.33 624.53,545.47 "/>
<path class="st6" d="M1048.72,508.04c0,6.89,74.86,6.89,74.86,0s-16.76-12.48-37.43-12.48S1048.72,501.15,1048.72,508.04z"/>
<path class="st6" d="M1011.29,529.34c0,4.87,49.9,4.87,49.9,0c0-4.87-11.17-8.82-24.95-8.82
	C1022.46,520.52,1011.29,524.47,1011.29,529.34z"/>
</svg>
