<svg width="212" height="212" viewBox="0 0 212 212" fill="none" xmlns="http://www.w3.org/2000/svg">
<path d="M66.0528 1.18118C47.9519 4.75519 29.4175 15.8021 18.3618 29.6649C6.33072 44.8274 1.01969 58.9068 0.152582 77.9682C-0.606137 94.7552 1.34486 104.286 8.71527 119.123C13.5928 129.087 15.5437 131.687 24.1064 140.243C35.2704 151.289 45.5673 157.354 59.983 161.578C71.2554 164.719 91.9576 165.044 102.796 162.12C119.163 157.571 135.638 146.957 146.152 133.961C152.438 126.163 159.375 112.734 161.868 103.419C166.095 87.4989 164.795 67.0296 158.617 51.6505C150.379 30.9646 132.928 13.7444 111.576 5.0801C100.195 0.423057 78.951 -1.4181 66.0528 1.18118ZM102.796 17.1018C116.67 21.5422 131.411 32.914 139.107 44.9357C144.418 53.275 148.428 64.322 149.729 74.7191C153.739 106.993 131.628 139.268 99.5448 147.932C90.0066 150.531 72.9896 150.531 64.3186 147.932C53.2629 144.683 41.8821 138.076 34.5117 130.604C21.6135 117.824 15.2186 103.744 14.2431 85.9826C12.2921 53.4917 33.2111 24.7913 65.0773 16.2353C75.3742 13.4194 92.3912 13.8527 102.796 17.1018Z" fill="white"/>
<path d="M73.2062 34.4303C72.1223 35.5134 71.3636 38.1126 71.3636 40.2787C71.3636 43.6361 70.93 44.2859 67.2448 45.6939C63.2345 47.2101 62.9093 47.2101 60.0912 44.8274C55.6473 40.9285 51.9621 41.47 46.651 46.8852C41.34 52.1921 40.9064 55.3329 44.7 59.9899C47.0846 63.0224 47.0846 63.3473 45.5671 67.3545C44.0497 71.0368 43.6161 71.47 39.9309 71.47C33.9696 71.47 32.3438 73.961 32.3438 82.6253C32.3438 88.7986 32.6689 89.9899 34.7283 91.3978C36.029 92.3726 38.7387 93.1307 40.5813 93.1307C43.5078 93.1307 44.2665 93.6722 45.6755 97.1379C47.193 101.037 47.193 101.362 44.7 104.286C40.6897 109.051 41.2316 112.734 46.9762 117.932C52.6124 123.131 54.7802 123.456 59.3325 119.557C62.5841 116.849 62.9093 116.849 66.8113 118.365C70.3881 119.773 70.93 120.531 71.472 124.539C72.2307 130.495 74.6152 132.12 82.3108 132.12C87.7303 132.12 88.8141 131.795 90.7651 129.304C92.0658 127.679 93.0413 124.972 93.0413 123.347C93.0413 120.856 93.8 119.99 96.8349 118.69C100.412 117.174 100.845 117.174 104.639 119.665C110.058 123.456 112.118 123.131 117.537 117.607C123.065 112.192 123.498 109.484 119.596 104.394C116.995 101.037 116.995 100.712 118.513 97.0296C119.922 93.8888 120.789 93.1307 123.282 93.1307C124.907 93.1307 127.617 92.156 129.243 90.8563C131.736 88.9069 132.061 87.8238 132.061 82.4087C132.061 74.7191 130.435 72.3365 124.474 71.5783C120.464 71.0368 119.705 70.4953 118.296 66.9213C116.778 63.0224 116.778 62.6975 119.488 59.4484C123.39 54.8996 123.065 52.7336 117.862 47.1018C112.551 41.3617 108.324 40.7119 103.989 44.8274C101.279 47.3184 101.062 47.4267 97.16 45.8022C93.5832 44.3942 93.0413 43.6361 93.0413 40.7119C93.0413 38.8708 92.2826 36.1632 91.3071 34.8635C89.898 32.8058 88.7057 32.4809 82.3108 32.4809C76.5662 32.4809 74.5069 32.9141 73.2062 34.4303ZM89.5729 62.0477C97.8104 65.0802 103.23 73.2029 103.23 82.4087C103.121 89.7733 100.737 94.4303 94.4503 99.1957C82.9612 107.968 66.4861 102.77 61.8254 88.9069C55.9724 71.795 72.4475 55.8744 89.5729 62.0477Z" fill="white"/>
<path d="M159.159 137.21C158.292 137.535 152.981 142.192 147.561 147.607C135.964 158.979 134.663 162.12 138.565 168.401C139.866 170.459 141.275 172.192 141.6 172.192C143.226 172.192 172.382 142.084 171.732 141.001C170.865 139.593 164.145 136.452 162.194 136.56C161.435 136.56 160.026 136.885 159.159 137.21Z" fill="white"/>
<path d="M162.627 162.77L147.236 178.257L162.085 192.986C177.368 207.932 180.728 210.423 187.448 211.723C200.455 214.105 214.112 200.459 211.727 187.463C210.535 180.856 206.416 175.441 192 161.145L178.127 147.282L162.627 162.77Z" fill="white"/>
</svg>
