<svg width="212" height="213" viewBox="0 0 212 213" fill="none" xmlns="http://www.w3.org/2000/svg">
<g clip-path="url(#clip0_23_66)">
<path d="M106 63.2305C100.352 63.2305 94.7591 64.3429 89.541 66.5044C84.3228 68.6658 79.5815 71.8339 75.5877 75.8277C71.5939 79.8215 68.4258 84.5628 66.2644 89.7809C64.103 94.9991 62.9905 100.592 62.9905 106.24C62.9905 111.888 64.103 117.481 66.2644 122.699C68.4258 127.917 71.5939 132.658 75.5877 136.652C79.5815 140.646 84.3228 143.814 89.541 145.976C94.7591 148.137 100.352 149.249 106 149.249C117.407 149.249 128.346 144.718 136.412 136.652C144.478 128.586 149.009 117.647 149.009 106.24C149.009 94.8331 144.478 83.8935 136.412 75.8277C128.346 67.7618 117.407 63.2305 106 63.2305ZM76.2405 106.24C76.2405 98.3473 79.3758 90.7778 84.9568 85.1968C90.5378 79.6158 98.1073 76.4805 106 76.4805C113.893 76.4805 121.462 79.6158 127.043 85.1968C132.624 90.7778 135.759 98.3473 135.759 106.24C135.759 114.133 132.624 121.702 127.043 127.283C121.462 132.864 113.893 135.999 106 135.999C98.1073 135.999 90.5378 132.864 84.9568 127.283C79.3758 121.702 76.2405 114.133 76.2405 106.24Z" fill="white"/>
<path d="M129.797 18.0345C122.814 -5.68304 89.1855 -5.68304 82.2027 18.0345L80.9572 22.2612C80.4696 23.9168 79.6176 25.4423 78.4638 26.7259C77.31 28.0095 75.8835 29.0186 74.289 29.6793C72.6946 30.3399 70.9724 30.6354 69.2489 30.544C67.5254 30.4527 65.8442 29.9768 64.3285 29.1512L60.4595 27.0312C38.7295 15.2122 14.9722 38.9827 26.8045 60.6995L28.9112 64.5685C29.7368 66.0842 30.2127 67.7654 30.304 69.4889C30.3954 71.2124 30.0999 72.9346 29.4393 74.529C28.7786 76.1235 27.7695 77.55 26.4859 78.7038C25.2023 79.8576 23.6768 80.7096 22.0212 81.1972L17.7945 82.4427C-5.92303 89.4255 -5.92303 123.054 17.7945 130.037L22.0212 131.282C23.6768 131.77 25.2023 132.622 26.4859 133.776C27.7695 134.929 28.7786 136.356 29.4393 137.95C30.0999 139.545 30.3954 141.267 30.304 142.991C30.2127 144.714 29.7368 146.395 28.9112 147.911L26.7912 151.78C14.9722 173.51 38.7295 197.28 60.4595 185.435L64.3285 183.328C65.8442 182.503 67.5254 182.027 69.2489 181.935C70.9724 181.844 72.6946 182.14 74.289 182.8C75.8835 183.461 77.31 184.47 78.4638 185.754C79.6176 187.037 80.4696 188.563 80.9572 190.218L82.2027 194.445C89.1855 218.162 122.814 218.162 129.797 194.445L131.042 190.218C131.53 188.563 132.382 187.037 133.536 185.754C134.689 184.47 136.116 183.461 137.71 182.8C139.305 182.14 141.027 181.844 142.751 181.935C144.474 182.027 146.155 182.503 147.671 183.328L151.54 185.448C173.27 197.28 197.04 173.497 185.195 151.78L183.088 147.911C182.263 146.395 181.787 144.714 181.695 142.991C181.604 141.267 181.9 139.545 182.56 137.95C183.221 136.356 184.23 134.929 185.514 133.776C186.797 132.622 188.323 131.77 189.978 131.282L194.205 130.037C217.922 123.054 217.922 89.4255 194.205 82.4427L189.978 81.1972C188.323 80.7096 186.797 79.8576 185.514 78.7038C184.23 77.55 183.221 76.1235 182.56 74.529C181.9 72.9346 181.604 71.2124 181.695 69.4889C181.787 67.7654 182.263 66.0842 183.088 64.5685L185.208 60.6995C197.04 38.9695 173.257 15.2122 151.54 27.0445L147.671 29.1512C146.155 29.9768 144.474 30.4527 142.751 30.544C141.027 30.6354 139.305 30.3399 137.71 29.6793C136.116 29.0186 134.689 28.0095 133.536 26.7259C132.382 25.4423 131.53 23.9168 131.042 22.2612L129.797 18.0345ZM94.9095 21.7842C98.169 10.7205 113.83 10.7205 117.09 21.7842L118.335 26.011C119.382 29.5631 121.211 32.8359 123.688 35.5894C126.164 38.3429 129.225 40.5073 132.646 41.9239C136.068 43.3406 139.763 43.9736 143.461 43.7764C147.159 43.5793 150.766 42.5571 154.018 40.7847L157.873 38.6647C167.996 33.166 179.073 44.2297 173.561 54.366L171.455 58.235C169.685 61.4869 168.665 65.0935 168.47 68.7906C168.275 72.4878 168.91 76.1817 170.328 79.6017C171.746 83.0217 173.911 86.0812 176.664 88.556C179.418 91.0307 182.69 92.858 186.242 93.904L190.455 95.1495C201.519 98.409 201.519 114.07 190.455 117.33L186.229 118.575C182.676 119.622 179.404 121.451 176.65 123.927C173.897 126.404 171.732 129.465 170.316 132.886C168.899 136.308 168.266 140.003 168.463 143.701C168.66 147.399 169.682 151.006 171.455 154.258L173.575 158.113C179.074 168.236 168.01 179.313 157.873 173.801L154.018 171.695C150.765 169.923 147.157 168.901 143.459 168.705C139.76 168.508 136.064 169.142 132.643 170.56C129.221 171.978 126.16 174.144 123.684 176.899C121.209 179.654 119.381 182.928 118.335 186.482L117.09 190.695C113.83 201.759 98.169 201.759 94.9095 190.695L93.664 186.468C92.6165 182.918 90.7881 179.647 88.3127 176.895C85.8373 174.143 82.7777 171.979 79.3578 170.563C75.938 169.146 72.2446 168.513 68.5482 168.709C64.8518 168.905 61.246 169.925 57.995 171.695L54.126 173.815C44.003 179.313 32.926 168.25 38.438 158.113L40.5447 154.258C42.3196 151.006 43.3438 147.397 43.5422 143.698C43.7407 139.998 43.1083 136.301 41.6914 132.878C40.2746 129.455 38.1093 126.392 35.3544 123.915C32.5995 121.438 29.325 119.609 25.771 118.562L21.5442 117.317C10.4805 114.057 10.4805 98.3957 21.5442 95.1362L25.771 93.8907C29.3194 92.8428 32.5886 91.0147 35.3394 88.5402C38.0901 86.0658 40.2527 83.0075 41.669 79.5894C43.0853 76.1713 43.7194 72.4797 43.5249 68.7849C43.3303 65.0901 42.3121 61.4855 40.5447 58.235L38.4247 54.366C32.926 44.243 43.9897 33.166 54.126 38.678L57.995 40.7847C61.246 42.5546 64.8518 43.5748 68.5482 43.7706C72.2446 43.9665 75.938 43.333 79.3578 41.9165C82.7777 40.5 85.8373 38.3365 88.3127 35.5844C90.7881 32.8322 92.6165 29.5612 93.664 26.011L94.9095 21.7842Z" fill="white"/>
</g>
<defs>
<clipPath id="clip0_23_66">
<rect y="0.23999" width="212" height="212" rx="80" fill="white"/>
</clipPath>
</defs>
</svg>
