<svg width="212" height="212" viewBox="0 0 212 212" fill="none" xmlns="http://www.w3.org/2000/svg">
<path d="M7.88374 1.90217C5.98154 2.90216 3.47865 4.90214 2.37738 6.40213C0.375064 9.1021 0.375064 10.6021 0.0747168 76.3014C-0.125514 140.301 -0.0253988 143.701 1.67657 147.001C2.77784 148.901 5.38085 151.501 7.48327 152.701C11.1876 154.901 12.4891 155.001 34.2142 155.001C53.2361 155.001 56.9404 155.201 56.9404 156.401C56.9404 158.501 61.7459 163.8 65.3501 165.7C67.7529 167 71.9577 167.5 83.7714 167.8L98.989 168.2V187.5C98.989 206.5 98.989 206.7 101.492 209.4L103.895 212H152.05H200.306L203.209 209.1L206.113 206.2V185.2C206.113 169.8 205.712 163.001 204.611 159.501L203.209 154.701L207.114 150.901C209.517 148.601 211.219 145.801 211.619 143.801C211.919 142.001 212.12 111.001 211.919 75.0014L211.619 9.50209L209.216 6.10213C204.611 -0.297805 209.517 0.00219238 105.797 0.00219238C15.7929 0.00219238 11.1876 0.102191 7.88374 1.90217ZM202.609 9.50209L205.112 11.9021V77.0014C205.112 119.501 204.711 142.801 204.11 144.001C203.51 145.101 202.108 146.501 201.007 147.101C199.205 148.001 198.504 147.801 196.201 145.701C190.995 140.801 185.189 138.701 175.377 138.201C170.271 137.901 166.066 137.301 166.066 136.901C166.066 136.401 167.869 134.301 170.171 132.301C184.187 119.601 184.187 98.3012 169.971 85.6013C163.564 79.8014 157.857 77.6014 149.047 77.6014C136.432 77.6014 126.22 83.9013 120.314 95.3012C118.011 99.7012 117.61 101.701 117.61 109.001C117.51 116.801 117.811 118.001 121.014 123.901C122.917 127.401 126.12 131.601 128.223 133.301C130.325 135.001 132.027 136.701 132.027 137.201C132.027 137.701 120.514 137.901 106.398 137.801L80.7679 137.501L73.3594 120.201L66.0509 102.901L76.4629 81.2014C82.2697 69.3015 86.9751 58.7016 86.9751 57.7016C86.9751 55.6016 84.272 54.3016 82.2697 55.6016C81.4687 56.1016 76.2627 65.7015 70.8565 77.0014L60.945 97.5012L56.0394 97.2012C50.3328 96.8012 46.3281 98.5012 42.6239 102.901C38.6192 107.701 38.419 111.801 41.9231 120.701C43.5249 125.001 44.9265 129.101 44.9265 129.701C44.9265 130.401 43.9254 133.001 42.724 135.401C40.9219 139.101 40.8218 140.101 41.9231 141.401C43.625 143.601 45.5272 143.401 47.3293 140.801C48.2303 139.601 49.0313 138.801 49.2315 139.101C49.7321 139.901 52.9358 147.101 52.9358 147.501C52.9358 147.801 43.7251 148.001 32.4121 148.001C11.8884 148.001 11.7882 148.001 9.38547 145.501L6.88258 143.101V77.5014V11.9021L9.38547 9.50209L11.7882 7.00212H105.997H200.206L202.609 9.50209ZM155.554 85.1013C161.061 86.6013 165.966 90.2013 169.27 95.2012C172.174 99.5012 173.775 103.701 172.774 104.601C171.373 106.001 164.064 100.401 161.862 96.3012C158.858 90.7013 156.856 90.8013 151.85 96.5012C146.143 102.901 141.138 105.201 131.627 105.801L123.718 106.301L124.418 103.401C127.822 89.8013 142.039 81.4014 155.554 85.1013ZM168.97 111.101C172.073 112.001 173.075 112.801 173.075 114.401C173.075 118.001 167.468 126.501 163.163 129.401C159.559 131.901 159.158 132.701 158.858 136.801C158.458 142.501 155.254 145.301 149.047 145.301C142.94 145.301 139.636 142.501 138.935 136.501C138.635 133.601 137.834 131.401 136.733 130.901C131.226 127.801 126.621 121.901 124.619 115.401C124.018 113.401 124.318 113.201 132.227 112.801C141.338 112.301 149.647 109.101 154.053 104.501L156.355 102.001L160.66 105.901C162.963 108.101 166.667 110.401 168.97 111.101ZM56.9404 105.201C56.8403 105.901 55.1383 109.801 53.0359 113.901L49.3316 121.201L47.5295 116.701C45.5272 111.501 46.1279 107.701 49.2315 105.501C51.8345 103.701 56.9404 103.501 56.9404 105.201ZM65.9508 120.001C67.7529 124.501 68.9543 128.401 68.5538 128.701C68.2535 129.101 65.1499 130.601 61.6458 132.101L55.4387 134.901L54.2373 132.501C53.136 130.501 53.4364 129.101 57.1406 121.101C59.4433 116.101 61.5457 112.001 61.9462 112.001C62.2465 112.001 64.0486 115.601 65.9508 120.001ZM73.9601 139.001C75.0613 141.101 76.8634 143.401 77.8646 144.001C79.066 144.601 90.1788 145.001 106.798 145.001C130.125 145.001 133.929 145.201 135.131 146.601C135.832 147.401 138.234 149.101 140.437 150.201C146.444 153.301 154.653 152.401 160.76 148.101C165.366 144.801 165.566 144.801 174.476 145.201C185.088 145.601 190.395 148.001 194.599 154.001C198.604 159.801 199.105 163.201 199.105 184.7V205H190.094H181.084V184C181.084 164.3 180.984 163.001 179.182 162.001C177.68 161.301 176.879 161.401 175.678 162.601C174.276 163.9 174.076 167.3 174.076 184.6V205H140.036H105.997V184.2C105.997 172.8 105.597 163.001 105.196 162.301C104.696 161.501 98.989 161.001 86.7749 160.801C70.8565 160.501 68.9543 160.301 66.952 158.501C64.9496 156.701 57.441 142.101 58.2419 141.401C58.4421 141.201 70.8565 135.301 71.6574 135.101C71.8576 135.001 72.8588 136.801 73.9601 139.001Z" fill="white"/>
<path d="M42.524 30.3019C41.5229 31.0019 40.8221 32.5018 41.1224 33.6018C41.4227 35.4018 42.6241 35.5018 66.6519 35.8018C91.5807 36.0018 91.881 36.0018 92.4817 33.9018C93.7832 29.9019 91.9811 29.5019 67.653 29.2019C49.2318 29.0019 44.0258 29.2019 42.524 30.3019Z" fill="white"/>
<path d="M121.315 30.0019C120.013 30.5018 119.012 31.5018 119.012 32.2018C119.112 35.9018 120.013 36.0018 145.643 35.8018C169.37 35.5018 170.572 35.4018 170.872 33.6018C171.673 29.5019 168.97 29.0019 145.643 29.1019C133.429 29.1019 122.516 29.5019 121.315 30.0019Z" fill="white"/>
<path d="M41.9232 56.6016C40.922 57.7016 40.8219 58.6016 41.6228 59.8016C42.4237 61.2016 44.7264 61.6016 54.0372 61.8016C68.5539 62.2016 70.1558 61.8016 69.7553 58.2016L69.455 55.5016L56.3398 55.2016C45.227 55.0016 43.0244 55.2016 41.9232 56.6016Z" fill="white"/>
<path d="M120.314 56.6016C120.014 57.5016 120.114 59.0016 120.714 59.9016C121.515 61.2016 124.018 61.6016 134.23 61.8016C147.746 62.1016 149.948 61.3016 148.547 57.0016C147.946 55.1016 147.145 55.0016 134.43 55.0016C122.917 55.0016 120.814 55.2016 120.314 56.6016Z" fill="white"/>
</svg>
