<svg width="212" height="213" viewBox="0 0 212 213" fill="none" xmlns="http://www.w3.org/2000/svg">
<g clip-path="url(#clip0_23_88)">
<path d="M185.5 40.27C189.014 40.27 192.384 41.666 194.869 44.1509C197.354 46.6357 198.75 50.0059 198.75 53.52V159.52C198.75 163.034 197.354 166.404 194.869 168.889C192.384 171.374 189.014 172.77 185.5 172.77H26.5C22.9859 172.77 19.6157 171.374 17.1308 168.889C14.646 166.404 13.25 163.034 13.25 159.52V53.52C13.25 50.0059 14.646 46.6357 17.1308 44.1509C19.6157 41.666 22.9859 40.27 26.5 40.27H185.5ZM26.5 27.02C19.4718 27.02 12.7314 29.812 7.76167 34.7817C2.79196 39.7514 0 46.4918 0 53.52L0 159.52C0 166.548 2.79196 173.289 7.76167 178.258C12.7314 183.228 19.4718 186.02 26.5 186.02H185.5C192.528 186.02 199.269 183.228 204.238 178.258C209.208 173.289 212 166.548 212 159.52V53.52C212 46.4918 209.208 39.7514 204.238 34.7817C199.269 29.812 192.528 27.02 185.5 27.02H26.5Z" fill="white"/>
<path d="M59.731 146.27H78.6652L105.033 66.7833H87.5825L69.9202 129.151H69.165L51.3437 66.7833H33.125L59.731 146.27ZM144.359 66.7833H112.625V146.27H128.167V116.63H142.265L156.178 146.27H173.76L157.807 114.245C165.029 111.462 172.25 103.592 172.25 91.945C172.25 76.7473 162.008 66.7833 144.359 66.7833ZM128.167 104.811V79.1323H142.08C150.427 79.1323 155.992 83.73 155.992 92.2365C155.992 100.624 150.586 104.824 141.854 104.824H128.167V104.811Z" fill="white"/>
</g>
<defs>
<clipPath id="clip0_23_88">
<rect width="212" height="212" fill="white" transform="translate(0 0.52002)"/>
</clipPath>
</defs>
</svg>
